<svg xmlns="http://www.w3.org/2000/svg" width="102" height="35" viewBox="0 0 102 35">
    <g fill="none" fill-rule="evenodd">
        <path fill="#FFF" d="M46.644 17.523c0 8.213-6.658 14.87-14.871 14.87-8.213 0-14.871-6.657-14.871-14.87s6.658-14.87 14.87-14.87c8.214 0 14.872 6.657 14.872 14.87M85.11 17.523c0 8.142-6.658 14.742-14.871 14.742-8.213 0-14.871-6.6-14.871-14.742 0-8.142 6.658-14.742 14.87-14.742 8.214 0 14.872 6.6 14.872 14.742"/>
        <path fill="#00DBB0" d="M60.774 11.902c.086-.847.322-1.677.743-2.416 1.55-2.723 4.521-4.43 7.735-4.43h20.795c.803 0 1.602.238 2.224.743.253.205.46.43.635.672.433.604.634 1.344.634 2.088V20.18c0 1.887-.458 3.759-1.42 5.382a7.684 7.684 0 0 1-.159.26c-1.65 2.619-4.566 4.166-7.66 4.166H68.715c-1.911 0-3.803-.615-5.25-1.864-1.226-1.059-2.093-2.403-2.514-4.117a7.948 7.948 0 0 1-.203-1.893v-9.712c0-.168.009-.335.026-.501m-19.674.685v9.533c0 .644-.05 1.291-.206 1.916-.36 1.439-1.033 2.616-1.97 3.582-1.515 1.555-3.637 2.37-5.807 2.37H17.544c-3.092 0-6.005-1.547-7.654-4.164a8.262 8.262 0 0 1-.158-.26C8.77 23.94 8.31 22.067 8.31 20.18V8.561c0-.702.176-1.407.566-1.992.07-.102.145-.202.226-.297.665-.793 1.674-1.215 2.71-1.215h21.08a8.515 8.515 0 0 1 7.723 4.93c.237.511.373 1.065.434 1.626.035.323.052.648.052.974m60.529-3.533c-.465-1.175-1.539-1.738-3.076-1.83-.526-3.129-2.14-5.175-4.631-6.344C92.624.273 91.195 0 89.762 0H68.687c-2.988 0-5.931.9-8.322 2.693-2.528 1.892-4.162 4.464-4.81 7.783H46.16c-.924-4.376-3.203-7.42-6.802-9.164C37.504.415 35.452 0 33.393 0h-21.59c-1.584 0-3.165.36-4.53 1.164C5.022 2.49 3.62 4.595 2.98 7.406A2.892 2.892 0 0 0 .756 8.41C.244 8.983 0 9.748 0 10.516v1.613c0 .562.122 1.129.414 1.609.553.906 1.466 1.447 2.567 1.798v4.79c0 2.48.531 4.95 1.687 7.146 1.544 2.934 3.774 5.042 6.722 6.313 1.747.754 3.649 1.082 5.553 1.082h17c1.73 0 3.453-.298 5.044-.976 2.878-1.219 5.084-3.406 6.455-6.802.72-1.789 1.076-3.702 1.135-5.631l.125-4.024c3.32-.928 6.06-.76 8.49 0l.13 4.308c.055 1.854.393 3.697 1.085 5.417 1.46 3.632 3.986 5.979 7.539 7.09 1.39.433 2.843.618 4.298.618H84.6c3.323 0 6.58-1.122 9.087-3.303a14.124 14.124 0 0 0 3.053-3.782c1.237-2.208 1.814-4.726 1.814-7.258v-5.17c1.6-.307 2.67-1.02 3.142-2.204.07-.172.11-.472.11-.657v-2.378c0-.361-.044-.726-.176-1.061"/>
        <path fill="#2B055D" d="M37.178 18.473v.023a5.553 5.553 0 1 1-11.107 0v-.023h11.107zM75.952 18.967a5.553 5.553 0 1 1-11.106 0h11.106z"/>
    </g>
</svg>
